<svg width="38" height="50" viewBox="0 0 38 50" fill="none" xmlns="http://www.w3.org/2000/svg">
<rect x="1.55469" y="14" width="34" height="22" fill="#F7CF47"/>
<path fill-rule="evenodd" clip-rule="evenodd" d="M7.69512 2.92969C7.11272 2.92969 6.64062 3.40178 6.64062 3.98418V5.85938H30.4688V3.98418C30.4688 3.40178 29.9967 2.92969 29.4143 2.92969H7.69512ZM3.71094 3.98418C3.71094 1.78376 5.4947 0 7.69512 0H29.4143C31.6147 0 33.3984 1.78376 33.3984 3.98418V7.32422C33.3984 8.13323 32.7426 8.78906 31.9336 8.78906H5.17578C4.36677 8.78906 3.71094 8.13323 3.71094 7.32422V3.98418Z" fill="#04144E"/>
<path fill-rule="evenodd" clip-rule="evenodd" d="M5.17578 34.7656C5.98479 34.7656 6.64062 35.4215 6.64062 36.2305V46.0156C6.64062 46.5982 7.11272 47.0703 7.69531 47.0703H29.4141C29.9967 47.0703 30.4688 46.5982 30.4688 46.0156V36.2305C30.4688 35.4215 31.1246 34.7656 31.9336 34.7656C32.7426 34.7656 33.3984 35.4215 33.3984 36.2305V46.0156C33.3984 48.2162 31.6147 50 29.4141 50H7.69531C5.4947 50 3.71094 48.2162 3.71094 46.0156V36.2305C3.71094 35.4215 4.36677 34.7656 5.17578 34.7656Z" fill="#04144E"/>
<path fill-rule="evenodd" clip-rule="evenodd" d="M3.71094 7.32422C3.71094 6.51521 4.36677 5.85938 5.17578 5.85938H31.9336C32.7426 5.85938 33.3984 6.51521 33.3984 7.32422V13.7695C33.3984 14.5785 32.7426 15.2344 31.9336 15.2344C31.1246 15.2344 30.4688 14.5785 30.4688 13.7695V8.78906H6.64062V13.7695C6.64062 14.5785 5.98479 15.2344 5.17578 15.2344C4.36677 15.2344 3.71094 14.5785 3.71094 13.7695V7.32422Z" fill="#04144E"/>
<path fill-rule="evenodd" clip-rule="evenodd" d="M23.8665 20.89C24.4386 20.3179 25.3661 20.3179 25.9381 20.89L29.0143 23.9662C29.5864 24.5382 29.5864 25.4657 29.0143 26.0378C28.4423 26.6098 27.5148 26.6098 26.9427 26.0378L23.8665 22.9616C23.2945 22.3895 23.2945 21.462 23.8665 20.89Z" fill="#04144E"/>
<path fill-rule="evenodd" clip-rule="evenodd" d="M29.0143 23.9642C29.5864 24.5363 29.5864 25.4637 29.0143 26.0358L25.9381 29.112C25.3661 29.684 24.4386 29.684 23.8665 29.112C23.2945 28.5399 23.2945 27.6124 23.8665 27.0404L26.9427 23.9642C27.5148 23.3921 28.4423 23.3921 29.0143 23.9642Z" fill="#04144E"/>
<path fill-rule="evenodd" clip-rule="evenodd" d="M13.2409 20.89C13.8129 21.462 13.8129 22.3895 13.2409 22.9616L10.1647 26.0378C9.59265 26.6098 8.66516 26.6098 8.09311 26.0378C7.52105 25.4657 7.52105 24.5382 8.09311 23.9662L11.1693 20.89C11.7413 20.3179 12.6688 20.3179 13.2409 20.89Z" fill="#04144E"/>
<path fill-rule="evenodd" clip-rule="evenodd" d="M8.09311 23.9642C8.66516 23.3921 9.59265 23.3921 10.1647 23.9642L13.2409 27.0404C13.8129 27.6124 13.8129 28.5399 13.2409 29.112C12.6688 29.684 11.7413 29.684 11.1693 29.112L8.09311 26.0358C7.52105 25.4637 7.52105 24.5363 8.09311 23.9642Z" fill="#04144E"/>
<path fill-rule="evenodd" clip-rule="evenodd" d="M20.2878 18.2139C21.0716 18.414 21.5448 19.2117 21.3447 19.9956L18.6033 30.7317C18.4031 31.5156 17.6054 31.9888 16.8215 31.7886C16.0377 31.5884 15.5645 30.7907 15.7646 30.0069L18.506 19.2708C18.7062 18.4869 19.5039 18.0137 20.2878 18.2139Z" fill="#04144E"/>
<path fill-rule="evenodd" clip-rule="evenodd" d="M0 13.7695C0 12.9605 0.655833 12.3047 1.46484 12.3047H35.6445C36.4535 12.3047 37.1094 12.9605 37.1094 13.7695V36.2305C37.1094 37.0395 36.4535 37.6953 35.6445 37.6953H1.46484C0.655833 37.6953 0 37.0395 0 36.2305V13.7695ZM2.92969 15.2344V34.7656H34.1797V15.2344H2.92969Z" fill="#04144E"/>
<path fill-rule="evenodd" clip-rule="evenodd" d="M14.6016 42.6758C14.6016 41.8668 15.2574 41.2109 16.0664 41.2109H21.0469C21.8559 41.2109 22.5117 41.8668 22.5117 42.6758C22.5117 43.4848 21.8559 44.1406 21.0469 44.1406H16.0664C15.2574 44.1406 14.6016 43.4848 14.6016 42.6758Z" fill="#04144E"/>
</svg>
