<svg width="16" height="14" viewBox="0 0 16 14" fill="none" xmlns="http://www.w3.org/2000/svg">
<path d="M5.55554 13.4299C5.50191 13.4299 5.4492 13.4159 5.40266 13.3893C5.35611 13.3626 5.31734 13.3243 5.29019 13.278C4.14007 11.3186 1.0753 7.14844 1.04447 7.10653C1.00068 7.04701 0.979771 6.97372 0.985568 6.90005C0.991364 6.82639 1.02348 6.75727 1.07604 6.70533L2.01813 5.77441C2.06931 5.72383 2.1366 5.69279 2.2083 5.68668C2.27999 5.68058 2.35156 5.69979 2.41056 5.74099L5.49139 7.89225C7.53964 5.26099 9.44308 3.44508 10.6942 2.37511C12.0965 1.17564 12.988 0.636651 13.0253 0.61419C13.0731 0.585482 13.1279 0.570315 13.1836 0.570313H14.7077C14.7701 0.570302 14.831 0.589253 14.8824 0.624652C14.9337 0.66005 14.9731 0.710225 14.9953 0.768523C15.0175 0.826821 15.0215 0.890489 15.0066 0.951085C14.9918 1.01168 14.9589 1.06634 14.9123 1.10782C12.6529 3.12013 10.3039 6.31745 8.73117 8.64524C7.02154 11.1755 5.83471 13.2538 5.82293 13.2745C5.79621 13.3214 5.75763 13.3605 5.71105 13.3877C5.66448 13.415 5.61155 13.4296 5.55758 13.4299L5.55554 13.4299Z" fill="#4566D4"/>
</svg>
