<svg width="712" height="576" viewBox="0 0 712 576" fill="none" xmlns="http://www.w3.org/2000/svg">
<g clip-path="url(#clip0_1556_8509)">
<g style="mix-blend-mode:screen" opacity="0.03">
<path d="M-124.553 231.145L-121.133 228.569L-76.9785 287.321L-79.9814 308.571L-14.5284 395.57L-17.29 415.059L8.58274 449.443L27.421 449.566L132.034 588.602C135.058 587.164 138.514 586.917 141.712 587.912C144.911 588.906 147.618 591.069 149.296 593.969C150.973 596.869 151.498 600.294 150.766 603.563C150.033 606.832 148.097 609.705 145.343 611.61C142.588 613.516 139.217 614.314 135.901 613.846C132.584 613.378 129.565 611.678 127.443 609.085C125.322 606.492 124.254 603.195 124.453 599.851C124.651 596.507 126.1 593.36 128.513 591.037L25.3135 453.841L6.46237 453.727L-21.7447 416.221L-18.994 396.73L-84.4123 309.726L-81.4113 288.486L-124.553 231.145ZM130.511 606.091C131.77 607.766 133.57 608.952 135.605 609.449C137.639 609.945 139.783 609.72 141.67 608.812C143.558 607.905 145.072 606.371 145.955 604.472C146.838 602.572 147.036 600.425 146.514 598.397C145.992 596.368 144.783 594.582 143.093 593.345C141.403 592.107 139.336 591.494 137.245 591.61C135.154 591.725 133.168 592.562 131.625 593.979C130.082 595.395 129.078 597.302 128.783 599.376C128.612 600.554 128.676 601.754 128.973 602.907C129.269 604.06 129.792 605.142 130.511 606.091Z" fill="white"/>
<path d="M51.699 666.941L50.1817 701.142L66.0451 722.216L101.452 733.097L122.541 761.117C125.547 759.641 128.999 759.352 132.21 760.305C135.42 761.259 138.154 763.387 139.868 766.265C141.582 769.144 142.151 772.561 141.46 775.839C140.769 779.117 138.87 782.014 136.141 783.954C133.412 785.895 130.052 786.736 126.73 786.311C123.408 785.886 120.367 784.226 118.212 781.661C116.058 779.096 114.947 775.814 115.102 772.468C115.256 769.121 116.664 765.956 119.046 763.602L98.8692 736.784L63.4512 725.901L45.851 702.438L47.3554 668.246L-149.591 406.463L-146.159 403.889L51.699 666.941ZM121.167 778.53C122.06 779.723 123.233 780.678 124.584 781.309C125.934 781.94 127.419 782.227 128.907 782.146C130.395 782.066 131.839 781.619 133.113 780.845C134.387 780.072 135.449 778.996 136.207 777.713C136.965 776.43 137.395 774.979 137.458 773.49C137.521 772.001 137.216 770.519 136.569 769.176C135.922 767.834 134.954 766.671 133.75 765.792C132.547 764.913 131.145 764.345 129.669 764.137C127.766 763.864 125.824 764.215 124.138 765.14L121.943 766.796C120.43 768.335 119.52 770.365 119.377 772.519C119.235 774.672 119.87 776.805 121.167 778.53Z" fill="white"/>
<path d="M66.9575 339.414L127.247 419.568L121.149 441.073L145.483 473.361C147.24 472.706 149.174 472.708 150.929 473.367C152.684 474.025 154.143 475.296 155.036 476.945C155.93 478.594 156.197 480.51 155.79 482.34C155.383 484.17 154.329 485.791 152.821 486.905C151.313 488.019 149.454 488.551 147.585 488.402C145.716 488.253 143.964 487.434 142.651 486.096C141.338 484.757 140.552 482.989 140.439 481.118C140.325 479.246 140.892 477.397 142.033 475.91L116.466 441.915L122.565 420.343L63.5536 341.892L66.9575 339.414Z" fill="white"/>
<path d="M207.043 377.805L249.189 433.839C250.917 433.112 252.85 433.035 254.631 433.621C256.412 434.208 257.922 435.418 258.882 437.029C259.842 438.641 260.187 440.544 259.854 442.39C259.522 444.236 258.534 445.899 257.072 447.073C255.61 448.247 253.774 448.854 251.9 448.78C250.027 448.707 248.242 447.959 246.876 446.674C245.51 445.389 244.654 443.654 244.466 441.788C244.278 439.922 244.77 438.051 245.852 436.519L204.69 381.801L183.455 378.794L118.025 291.799L98.5387 289.043L70.3227 251.592L75.4242 233.457L-29.0704 94.4657L-25.661 91.9552L79.4894 231.666L80.1231 232.517L75.0197 250.662L100.881 285.045L120.367 287.801L185.808 374.797L207.043 377.805Z" fill="white"/>
</g>
<path opacity="0.2" d="M-4.12467 298.441L-40.5566 249.942L-38.5701 248.452L-1.55197 297.749L-4.97427 329.218L41.197 390.69L37.1753 419.037C39.0652 419.525 40.7024 420.707 41.7619 422.347C42.8213 423.987 43.2255 425.965 42.8941 427.889C42.5627 429.813 41.5199 431.542 39.9729 432.732C38.426 433.922 36.4879 434.487 34.5437 434.314C32.5994 434.141 30.7913 433.243 29.4782 431.798C28.1652 430.353 27.4434 428.467 27.4562 426.515C27.4689 424.562 28.2152 422.686 29.5469 421.259C30.8787 419.832 32.6985 418.958 34.6448 418.811L38.5477 391.301L-7.59433 329.856L-4.12467 298.441ZM32.1571 422.334C31.1901 423.063 30.5055 424.104 30.2199 425.28C29.9343 426.457 30.0655 427.696 30.591 428.787C31.1166 429.878 32.004 430.753 33.102 431.262C34.2001 431.772 35.4408 431.886 36.6128 431.583C37.7848 431.28 38.8155 430.58 39.5294 429.603C40.2432 428.625 40.5959 427.43 40.5275 426.221C40.459 425.012 39.9736 423.864 39.154 422.973C38.3343 422.082 37.2312 421.502 36.0325 421.334C34.6592 421.141 33.2657 421.501 32.1571 422.334ZM-29.0216 339.528L17.1496 401L13.0427 429.918L49.8989 478.974C51.1169 478.484 52.4413 478.32 53.7421 478.497C54.7535 478.632 55.728 478.967 56.6081 479.483C57.4882 480 58.2562 480.687 58.8668 481.505C60.0809 483.147 60.6007 485.201 60.314 487.223C60.0274 489.245 58.9572 491.072 57.3346 492.312C55.7285 493.577 53.6852 494.153 51.6544 493.912C49.6236 493.671 47.7716 492.633 46.5058 491.026C45.2399 489.419 44.6639 487.375 44.9046 485.344C45.1452 483.313 46.1827 481.46 47.7888 480.194L10.4939 430.535L14.6009 401.616L-31.543 340.183L-28.1115 308.66L-64.5415 260.15L-62.566 258.658L-25.59 308.005L-29.0216 339.528ZM48.4644 489.335C48.8742 489.888 49.391 490.354 49.984 490.704C50.577 491.054 51.2342 491.281 51.9167 491.372C52.9422 491.52 53.9884 491.359 54.9225 490.911C55.8567 490.463 56.6368 489.748 57.1639 488.856C57.691 487.964 57.9415 486.935 57.8835 485.901C57.8255 484.866 57.4617 483.872 56.8383 483.044C56.4252 482.494 55.9079 482.032 55.3161 481.682C54.7242 481.333 54.0693 481.103 53.3888 481.007C52.7084 480.911 52.0156 480.949 51.3501 481.121C50.6847 481.292 50.0596 481.594 49.5105 482.007C48.9595 482.418 48.4951 482.934 48.1442 483.526C47.7932 484.117 47.5624 484.772 47.4652 485.453C47.368 486.134 47.4063 486.827 47.5777 487.493C47.7492 488.16 48.0505 488.785 48.4644 489.335ZM62.8941 398.564L17.8225 338.585C18.4669 337.73 18.781 336.671 18.7071 335.603C18.6332 334.535 18.1762 333.529 17.4202 332.771C16.6642 332.012 15.66 331.553 14.5923 331.476C13.5245 331.399 12.4651 331.711 11.6087 332.353C10.7523 332.995 10.1566 333.925 9.93115 334.972C9.70568 336.019 9.86558 337.112 10.3815 338.05C10.8974 338.988 11.7345 339.709 12.7391 340.079C13.7436 340.449 14.8479 340.444 15.8489 340.065L61.208 400.476L84.2457 413.219C84.0879 414.237 84.2884 415.278 84.8128 416.164C85.3372 417.05 86.153 417.727 87.1208 418.078C88.0886 418.43 89.1483 418.434 90.1188 418.091C91.0894 417.748 91.9105 417.078 92.4419 416.196C92.9733 415.314 93.182 414.275 93.0323 413.256C92.8826 412.237 92.3838 411.301 91.6212 410.609C90.8585 409.917 89.8794 409.512 88.8511 409.462C87.8228 409.412 86.809 409.721 85.9832 410.335C85.7323 410.517 85.5038 410.728 85.3025 410.964L62.8941 398.564ZM210.572 422.862C209.06 422.64 207.647 421.978 206.509 420.957C205.371 419.937 204.559 418.604 204.174 417.125L175.936 419.492L123.105 349.163L97.1367 351.835L-38.269 172.498L-36.2916 170.996L98.2199 349.224L124.245 346.55L177.094 416.904L203.965 414.69C203.995 414.514 204.023 414.35 204.052 414.175C204.388 412.191 205.485 410.417 207.108 409.23C208.732 408.043 210.755 407.537 212.747 407.82C214.738 408.103 216.541 409.151 217.771 410.743C219.001 412.335 219.562 414.344 219.334 416.343C219.032 418.363 217.948 420.184 216.316 421.411C214.684 422.638 212.635 423.174 210.611 422.902L210.572 422.862ZM215.843 412.068C215.224 411.226 214.367 410.588 213.383 410.237C212.4 409.885 211.333 409.835 210.321 410.094C209.309 410.352 208.397 410.908 207.703 411.688C207.008 412.469 206.563 413.439 206.424 414.475C206.284 415.824 206.672 417.175 207.508 418.244C208.343 419.314 209.56 420.017 210.903 420.208C212.246 420.399 213.61 420.062 214.709 419.267C215.809 418.473 216.558 417.283 216.798 415.948C217.002 414.579 216.658 413.186 215.843 412.068ZM159.844 370.095C160.355 369.812 160.805 369.431 161.169 368.973C161.532 368.515 161.802 367.991 161.963 367.429C162.124 366.867 162.172 366.279 162.106 365.698C162.039 365.117 161.859 364.555 161.576 364.044C161.292 363.533 160.911 363.083 160.453 362.719C159.996 362.355 159.471 362.085 158.91 361.924C158.348 361.763 157.76 361.715 157.179 361.781C156.599 361.847 156.037 362.027 155.526 362.311L128.852 326.81L100.822 328.479L72.9628 291.324C73.6035 290.467 73.9134 289.407 73.8354 288.339C73.7575 287.272 73.297 286.268 72.5385 285.513C71.7801 284.758 70.7746 284.301 69.707 284.228C68.6394 284.155 67.5813 284.47 66.7272 285.114C65.8731 285.759 65.2804 286.691 65.0579 287.738C64.8355 288.785 64.9984 289.877 65.5165 290.814C66.0347 291.75 66.8734 292.468 67.8785 292.836C68.8835 293.204 69.9874 293.196 70.9873 292.815L99.7009 331.05L127.721 329.368L153.594 363.81C152.84 364.655 152.437 365.757 152.468 366.89C152.499 368.024 152.962 369.102 153.762 369.905C154.561 370.709 155.638 371.176 156.77 371.212C157.903 371.247 159.007 370.849 159.855 370.097L159.844 370.095ZM39.2891 531.853C37.5731 532.789 35.5675 533.044 33.6717 532.568C31.7759 532.091 30.129 530.918 29.0588 529.281C27.9887 527.645 27.5739 525.665 27.8971 523.737C28.2203 521.809 29.2577 520.073 30.8027 518.876C32.3478 517.678 34.2871 517.107 36.2345 517.276C38.182 517.444 39.9946 518.34 41.3115 519.786C42.6285 521.231 43.3531 523.119 43.341 525.074C43.3289 527.029 42.5811 528.908 41.2464 530.336L56.4536 550.555L52.9253 563.041L132.439 668.76L130.452 670.249L50.2033 563.55L53.7315 551.064L39.2891 531.853ZM39.8388 521.928C39.3214 521.242 38.6428 520.693 37.8629 520.331C37.0831 519.968 36.2261 519.804 35.3677 519.852C34.5093 519.9 33.676 520.159 32.9415 520.605C32.2069 521.052 31.5938 521.673 31.1564 522.413C30.719 523.154 30.4707 523.99 30.4335 524.85C30.3963 525.709 30.5713 526.564 30.9432 527.339C31.315 528.115 31.8721 528.787 32.5653 529.296C33.2584 529.805 34.0662 530.135 34.9172 530.257C36.2899 530.451 37.6833 530.092 38.7914 529.259C39.8996 528.426 40.6317 527.187 40.8273 525.814C40.9182 525.126 40.8709 524.427 40.688 523.757C40.505 523.088 40.1903 522.462 39.7621 521.916L39.8388 521.928ZM140.927 471.826C140.308 470.985 139.452 470.347 138.468 469.995C137.484 469.644 136.418 469.594 135.406 469.853C134.393 470.111 133.482 470.666 132.787 471.447C132.093 472.227 131.647 473.198 131.508 474.233C131.313 475.608 131.672 477.004 132.506 478.114C132.919 478.663 133.436 479.126 134.028 479.476C134.62 479.826 135.275 480.056 135.955 480.152C136.636 480.249 137.329 480.21 137.994 480.039C138.66 479.868 139.285 479.567 139.835 479.154C140.944 478.32 141.677 477.08 141.872 475.705C141.977 475.028 141.947 474.337 141.785 473.672C141.623 473.006 141.332 472.379 140.927 471.826ZM138.711 434.919L139.582 415.155L130.378 402.95L109.919 396.615L97.7092 380.396C95.9559 381.259 93.9417 381.431 92.0676 380.876C90.1934 380.321 88.5967 379.081 87.5954 377.402C86.5941 375.722 86.2616 373.728 86.6641 371.815C87.0666 369.902 88.1746 368.211 89.7675 367.078C91.3604 365.946 93.3213 365.455 95.2599 365.704C97.1986 365.952 98.9727 366.922 100.229 368.42C101.485 369.917 102.132 371.833 102.04 373.786C101.948 375.739 101.124 377.585 99.732 378.958L111.411 394.456L131.91 400.752L142.113 414.31L141.237 434.107L255.212 585.715L253.226 587.205L138.711 434.919ZM98.5075 370.333C98.0953 369.781 97.5783 369.316 96.9861 368.965C96.3939 368.613 95.7382 368.382 95.0566 368.285C94.375 368.187 93.6808 368.225 93.014 368.396C92.3471 368.568 91.7207 368.869 91.1706 369.283C90.0604 370.119 89.3275 371.362 89.133 372.738C88.9386 374.115 89.2985 375.512 90.1336 376.624C90.9692 377.734 92.2108 378.466 93.5859 378.661C94.6869 378.814 95.8076 378.608 96.7829 378.076L98.0633 377.165C98.9361 376.274 99.4611 375.1 99.5432 373.855C99.6253 372.61 99.2592 371.377 98.511 370.379L98.5075 370.333ZM179.685 624.682L145.525 579.271L149.065 566.787L134.251 547.108C134.897 546.255 135.213 545.197 135.142 544.129C135.071 543.061 134.617 542.054 133.863 541.294C133.11 540.534 132.107 540.072 131.04 539.992C129.973 539.912 128.913 540.22 128.055 540.859C127.196 541.498 126.598 542.426 126.369 543.472C126.14 544.517 126.296 545.61 126.808 546.55C127.32 547.49 128.154 548.214 129.157 548.588C130.16 548.962 131.264 548.961 132.266 548.586L146.342 567.296L142.803 579.78L177.699 626.171L179.685 624.682ZM117.516 593.497L155.403 643.854L166.679 645.458L181.648 665.355L178.692 675.853L239.925 757.204L241.9 755.712L181.421 675.3L184.377 664.802L167.995 643.134L156.717 641.541L118.841 591.186L106.55 589.456L82.723 557.772C83.3357 556.895 83.6115 555.826 83.4994 554.761C83.3874 553.697 82.8952 552.709 82.1131 551.978C81.3311 551.247 80.3118 550.824 79.2426 550.784C78.1733 550.745 77.126 551.093 76.2928 551.765C75.4597 552.436 74.8968 553.386 74.7076 554.439C74.5184 555.492 74.7155 556.579 75.2628 557.498C75.8101 558.418 76.6708 559.109 77.6867 559.445C78.7027 559.781 79.8056 559.739 80.793 559.327L105.18 591.76L117.516 593.497ZM-87.8037 368.864L-84.9025 358.357L-146.125 277.008L-148.111 278.498L-87.6229 358.922L-90.5241 369.429L-74.2044 391.133L-62.9261 392.725L-25.0502 443.08L-12.7496 444.823L11.0662 476.505C10.4789 477.397 10.2322 478.47 10.3709 479.529C10.5097 480.587 11.0247 481.56 11.8219 482.271C12.6191 482.981 13.6452 483.38 14.7124 483.395C15.7796 483.411 16.8167 483.042 17.634 482.355C18.4513 481.669 18.9941 480.711 19.1633 479.657C19.3325 478.603 19.1166 477.523 18.5553 476.615C17.9939 475.707 17.1246 475.031 16.1062 474.711C15.0878 474.391 13.9885 474.449 13.0092 474.873L-11.3784 442.441L-23.6681 440.7L-61.5439 390.345L-72.8313 388.74L-87.8037 368.864ZM-11.6574 524.135L-12.5339 543.932L-3.32973 556.138L17.1492 562.42L29.3466 578.648C30.7321 577.959 32.2955 577.713 33.8258 577.941C35.5668 578.179 37.1761 579 38.3911 580.27C39.6062 581.54 40.3554 583.184 40.5167 584.934C40.678 586.684 40.2419 588.438 39.2794 589.908C38.3169 591.378 36.8848 592.479 35.2166 593.031C33.5483 593.583 31.7423 593.553 30.0928 592.947C28.4434 592.34 27.0478 591.193 26.1337 589.692C25.2194 588.19 24.8405 586.424 25.0586 584.68C25.2767 582.936 26.079 581.317 27.3347 580.088L15.6451 564.588L-4.85386 558.291L-15.0485 544.746L-14.172 524.949L-128.157 373.396L-126.181 371.904L-11.6574 524.135ZM28.5574 588.723C29.176 589.564 30.0313 590.201 31.014 590.553C31.9966 590.905 33.0619 590.956 34.0733 590.698C35.0846 590.441 35.9962 589.888 36.6912 589.109C37.3862 588.33 37.833 587.362 37.9745 586.328C38.1674 584.951 37.8082 583.553 36.9751 582.44C36.5644 581.887 36.0473 581.422 35.4545 581.072C34.8616 580.723 34.2048 580.495 33.5227 580.402C32.4182 580.24 31.2912 580.446 30.3147 580.986L29.0344 581.897C28.1543 582.786 27.6243 583.963 27.5417 585.211C27.4591 586.46 27.8295 587.697 28.5848 588.694L28.5574 588.723ZM102.816 454.482C102.164 459.095 100.159 463.411 97.0554 466.884C93.9513 470.357 89.8871 472.831 85.3768 473.993C80.8666 475.155 76.1128 474.953 71.7168 473.412C67.3207 471.872 63.4798 469.062 60.6799 465.338C57.8799 461.615 56.2467 457.144 55.9866 452.492C55.7266 447.84 56.8515 443.216 59.219 439.205C61.5866 435.193 65.0905 431.974 69.2875 429.954C73.4846 427.935 78.1863 427.206 82.7981 427.86C88.9771 428.745 94.554 432.044 98.3063 437.034C102.059 442.024 103.68 448.299 102.816 454.482ZM82.4567 430.281C78.3216 429.688 74.1038 430.336 70.3374 432.142C66.571 433.949 63.4255 436.833 61.2992 440.429C59.1729 444.025 58.1615 448.172 58.393 452.344C58.6245 456.516 60.0885 460.526 62.5997 463.865C65.1109 467.205 68.5562 469.725 72.4994 471.104C76.4425 472.485 80.7062 472.663 84.7504 471.618C88.7946 470.572 92.4375 468.349 95.2176 465.231C97.9977 462.113 99.7901 458.24 100.368 454.102C101.14 448.569 99.6885 442.956 96.3313 438.491C92.9742 434.026 87.985 431.074 82.4567 430.281ZM77.1177 468.028C73.7793 467.556 70.6559 466.104 68.1426 463.856C65.6293 461.607 63.8392 458.664 62.9988 455.397C62.1584 452.131 62.3055 448.689 63.4214 445.507C64.5374 442.325 66.5721 439.546 69.268 437.521C71.9639 435.497 75.1997 434.318 78.5662 434.133C81.9326 433.949 85.2782 434.768 88.1795 436.486C91.0809 438.205 93.4076 440.745 94.8652 443.787C96.3228 446.828 96.8457 450.233 96.3678 453.571C95.7277 458.044 93.3419 462.079 89.7328 464.795C86.1238 467.511 81.5857 468.685 77.1122 468.061L77.1177 468.028ZM81.5367 436.729C78.6848 436.325 75.7775 436.777 73.1825 438.026C70.5875 439.276 68.4213 441.267 66.9579 443.748C65.4945 446.229 64.7995 449.089 64.9609 451.965C65.1223 454.842 66.1328 457.606 67.8647 459.908C69.5965 462.21 71.9719 463.948 74.6905 464.9C77.409 465.852 80.3486 465.976 83.1375 465.257C85.9264 464.538 88.4394 463.008 90.3587 460.86C92.2779 458.713 93.5172 456.044 93.9198 453.191C94.4442 449.371 93.4354 445.499 91.114 442.42C88.7925 439.341 85.3472 437.307 81.5312 436.762L81.5367 436.729ZM87.4391 452.275C87.6612 450.705 87.4128 449.105 86.7253 447.677C86.0379 446.249 84.9423 445.056 83.5773 444.251C82.2123 443.445 80.6391 443.063 79.057 443.152C77.4749 443.242 75.9548 443.798 74.6893 444.752C73.4238 445.706 72.4696 447.014 71.9476 448.51C71.4256 450.007 71.3592 451.625 71.7568 453.159C72.1544 454.694 72.9981 456.076 74.1812 457.13C75.3643 458.185 76.8335 458.865 78.403 459.085C80.4981 459.377 82.6237 458.829 84.3156 457.559C86.0075 456.289 87.1284 454.401 87.4336 452.308L87.4391 452.275ZM104.255 487.517L95.3534 486.258L94.0993 495.151L103.001 496.409L104.255 487.517ZM102.155 502.351L93.2644 501.095L91.9974 509.997L100.899 511.255L102.155 502.351ZM100.066 517.187L91.1644 515.929L89.9085 524.833L98.7989 526.089L100.066 517.187ZM97.9585 532.066L89.068 530.81L87.803 539.7L96.7044 540.959L97.9585 532.066ZM78.1365 492.946L87.036 494.215L88.292 485.312L79.3906 484.054L78.1365 492.946ZM86.1921 500.146L77.3016 498.89L76.0475 507.783L84.938 509.039L86.1921 500.146Z" fill="white"/>
</g>
<defs>
<clipPath id="clip0_1556_8509">
<rect width="711.903" height="575.093" fill="white" transform="matrix(-1 0 0 1 711.902 0.90625)"/>
</clipPath>
</defs>
</svg>
