<svg width="470" height="499" viewBox="0 0 470 499" fill="none" xmlns="http://www.w3.org/2000/svg">
<g style="mix-blend-mode:screen" opacity="0.03">
<path d="M-124.553 154.145L-121.133 151.569L-76.9785 210.321L-79.9814 231.571L-14.5284 318.57L-17.29 338.059L8.58274 372.443L27.421 372.566L132.034 511.602C135.058 510.164 138.514 509.917 141.712 510.912C144.911 511.906 147.618 514.069 149.296 516.969C150.973 519.869 151.498 523.294 150.766 526.563C150.033 529.832 148.097 532.705 145.343 534.61C142.588 536.516 139.217 537.314 135.901 536.846C132.584 536.378 129.565 534.678 127.443 532.085C125.322 529.492 124.254 526.195 124.453 522.851C124.651 519.507 126.1 516.36 128.513 514.037L25.3135 376.841L6.46237 376.727L-21.7447 339.221L-18.994 319.73L-84.4123 232.726L-81.4113 211.486L-124.553 154.145ZM130.511 529.091C131.77 530.766 133.57 531.952 135.605 532.449C137.639 532.945 139.783 532.72 141.67 531.812C143.558 530.905 145.072 529.371 145.955 527.472C146.838 525.572 147.036 523.425 146.514 521.397C145.992 519.368 144.783 517.582 143.093 516.345C141.403 515.107 139.336 514.494 137.245 514.61C135.154 514.725 133.168 515.562 131.625 516.979C130.082 518.395 129.078 520.302 128.783 522.376C128.612 523.554 128.676 524.754 128.973 525.907C129.269 527.06 129.792 528.142 130.511 529.091Z" fill="white"/>
<path d="M51.699 589.941L50.1817 624.142L66.0451 645.216L101.452 656.097L122.541 684.117C125.547 682.641 128.999 682.352 132.21 683.305C135.42 684.259 138.154 686.387 139.868 689.265C141.582 692.144 142.151 695.561 141.46 698.839C140.769 702.117 138.87 705.014 136.141 706.954C133.412 708.895 130.052 709.736 126.73 709.311C123.408 708.886 120.367 707.226 118.212 704.661C116.058 702.096 114.947 698.814 115.102 695.468C115.256 692.121 116.664 688.956 119.046 686.602L98.8692 659.784L63.4512 648.901L45.851 625.438L47.3554 591.246L-149.591 329.463L-146.159 326.889L51.699 589.941ZM121.167 701.53C122.06 702.723 123.233 703.678 124.584 704.309C125.934 704.94 127.419 705.227 128.907 705.146C130.395 705.066 131.839 704.619 133.113 703.845C134.387 703.072 135.449 701.996 136.207 700.713C136.965 699.43 137.395 697.979 137.458 696.49C137.521 695.001 137.216 693.519 136.569 692.176C135.922 690.834 134.954 689.671 133.75 688.792C132.547 687.913 131.145 687.345 129.669 687.137C127.766 686.864 125.824 687.215 124.138 688.14L121.943 689.796C120.43 691.335 119.52 693.365 119.377 695.519C119.235 697.672 119.87 699.805 121.167 701.53Z" fill="white"/>
<path d="M66.9575 262.414L127.247 342.568L121.149 364.073L145.483 396.361C147.24 395.706 149.174 395.708 150.929 396.367C152.684 397.025 154.143 398.296 155.036 399.945C155.93 401.594 156.197 403.51 155.79 405.34C155.383 407.17 154.329 408.791 152.821 409.905C151.313 411.019 149.454 411.551 147.585 411.402C145.716 411.253 143.964 410.434 142.651 409.096C141.338 407.757 140.552 405.989 140.439 404.118C140.325 402.246 140.892 400.397 142.033 398.91L116.466 364.915L122.565 343.343L63.5536 264.892L66.9575 262.414Z" fill="white"/>
<path d="M207.043 300.805L249.189 356.839C250.917 356.112 252.85 356.035 254.631 356.621C256.412 357.208 257.922 358.418 258.882 360.029C259.842 361.641 260.187 363.544 259.854 365.39C259.522 367.236 258.534 368.899 257.072 370.073C255.61 371.247 253.774 371.854 251.9 371.78C250.027 371.707 248.242 370.959 246.876 369.674C245.51 368.389 244.654 366.654 244.466 364.788C244.278 362.922 244.77 361.051 245.852 359.519L204.69 304.801L183.455 301.794L118.025 214.799L98.5387 212.043L70.3227 174.592L75.4242 156.457L-29.0704 17.4657L-25.661 14.9552L79.4894 154.666L80.1231 155.517L75.0197 173.662L100.881 208.045L120.367 210.801L185.808 297.797L207.043 300.805Z" fill="white"/>
</g>
<path opacity="0.2" d="M-4.12467 221.441L-40.5566 172.942L-38.5701 171.452L-1.55197 220.749L-4.97427 252.218L41.197 313.69L37.1753 342.037C39.0652 342.525 40.7024 343.707 41.7619 345.347C42.8213 346.987 43.2255 348.965 42.8941 350.889C42.5627 352.813 41.5199 354.542 39.9729 355.732C38.426 356.922 36.4879 357.487 34.5437 357.314C32.5994 357.141 30.7913 356.243 29.4782 354.798C28.1652 353.353 27.4434 351.467 27.4562 349.515C27.4689 347.562 28.2152 345.686 29.5469 344.259C30.8787 342.832 32.6985 341.958 34.6448 341.811L38.5477 314.301L-7.59433 252.856L-4.12467 221.441ZM32.1571 345.334C31.1901 346.063 30.5055 347.104 30.2199 348.28C29.9343 349.457 30.0655 350.696 30.591 351.787C31.1166 352.878 32.004 353.753 33.102 354.262C34.2001 354.772 35.4408 354.886 36.6128 354.583C37.7848 354.28 38.8155 353.58 39.5294 352.603C40.2432 351.625 40.5959 350.43 40.5275 349.221C40.459 348.012 39.9736 346.864 39.154 345.973C38.3343 345.082 37.2312 344.502 36.0325 344.334C34.6592 344.141 33.2657 344.501 32.1571 345.334ZM-29.0216 262.528L17.1496 324L13.0427 352.918L49.8989 401.974C51.1169 401.484 52.4413 401.32 53.7421 401.497C54.7535 401.632 55.728 401.967 56.6081 402.483C57.4882 403 58.2562 403.687 58.8668 404.505C60.0809 406.147 60.6007 408.201 60.314 410.223C60.0274 412.245 58.9572 414.072 57.3346 415.312C55.7285 416.577 53.6852 417.153 51.6544 416.912C49.6236 416.671 47.7716 415.633 46.5058 414.026C45.2399 412.419 44.6639 410.375 44.9046 408.344C45.1452 406.313 46.1827 404.46 47.7888 403.194L10.4939 353.535L14.6009 324.616L-31.543 263.183L-28.1115 231.66L-64.5415 183.15L-62.566 181.658L-25.59 231.005L-29.0216 262.528ZM48.4644 412.335C48.8742 412.888 49.391 413.354 49.984 413.704C50.577 414.054 51.2342 414.281 51.9167 414.372C52.9422 414.52 53.9884 414.359 54.9225 413.911C55.8567 413.463 56.6368 412.748 57.1639 411.856C57.691 410.964 57.9415 409.935 57.8835 408.901C57.8255 407.866 57.4617 406.872 56.8383 406.044C56.4252 405.494 55.9079 405.032 55.3161 404.682C54.7242 404.333 54.0693 404.103 53.3888 404.007C52.7084 403.911 52.0156 403.949 51.3501 404.121C50.6847 404.292 50.0596 404.594 49.5105 405.007C48.9595 405.418 48.4951 405.934 48.1442 406.526C47.7932 407.117 47.5624 407.772 47.4652 408.453C47.368 409.134 47.4063 409.827 47.5777 410.493C47.7492 411.16 48.0505 411.785 48.4644 412.335ZM62.8941 321.564L17.8225 261.585C18.4669 260.73 18.781 259.671 18.7071 258.603C18.6332 257.535 18.1762 256.529 17.4202 255.771C16.6642 255.012 15.66 254.553 14.5923 254.476C13.5245 254.399 12.4651 254.711 11.6087 255.353C10.7523 255.995 10.1566 256.925 9.93115 257.972C9.70568 259.019 9.86558 260.112 10.3815 261.05C10.8974 261.988 11.7345 262.709 12.7391 263.079C13.7436 263.449 14.8479 263.444 15.8489 263.065L61.208 323.476L84.2457 336.219C84.0879 337.237 84.2884 338.278 84.8128 339.164C85.3372 340.05 86.153 340.727 87.1208 341.078C88.0886 341.43 89.1483 341.434 90.1188 341.091C91.0894 340.748 91.9105 340.078 92.4419 339.196C92.9733 338.314 93.182 337.275 93.0323 336.256C92.8826 335.237 92.3838 334.301 91.6212 333.609C90.8585 332.917 89.8794 332.512 88.8511 332.462C87.8228 332.412 86.809 332.721 85.9832 333.335C85.7323 333.517 85.5038 333.728 85.3025 333.964L62.8941 321.564ZM210.572 345.862C209.06 345.64 207.647 344.978 206.509 343.957C205.371 342.937 204.559 341.604 204.174 340.125L175.936 342.492L123.105 272.163L97.1367 274.835L-38.269 95.4977L-36.2916 93.9955L98.2199 272.224L124.245 269.55L177.094 339.904L203.965 337.69C203.995 337.514 204.023 337.35 204.052 337.175C204.388 335.191 205.485 333.417 207.108 332.23C208.732 331.043 210.755 330.537 212.747 330.82C214.738 331.103 216.541 332.151 217.771 333.743C219.001 335.335 219.562 337.344 219.334 339.343C219.032 341.363 217.948 343.184 216.316 344.411C214.684 345.638 212.635 346.174 210.611 345.902L210.572 345.862ZM215.843 335.068C215.224 334.226 214.367 333.588 213.383 333.237C212.4 332.885 211.333 332.835 210.321 333.094C209.309 333.352 208.397 333.908 207.703 334.688C207.008 335.469 206.563 336.439 206.424 337.475C206.284 338.824 206.672 340.175 207.508 341.244C208.343 342.314 209.56 343.017 210.903 343.208C212.246 343.399 213.61 343.062 214.709 342.267C215.809 341.473 216.558 340.283 216.798 338.948C217.002 337.579 216.658 336.186 215.843 335.068ZM159.844 293.095C160.355 292.812 160.805 292.431 161.169 291.973C161.532 291.515 161.802 290.991 161.963 290.429C162.124 289.867 162.172 289.279 162.106 288.698C162.039 288.117 161.859 287.555 161.576 287.044C161.292 286.533 160.911 286.083 160.453 285.719C159.996 285.355 159.471 285.085 158.91 284.924C158.348 284.763 157.76 284.715 157.179 284.781C156.599 284.847 156.037 285.027 155.526 285.311L128.852 249.81L100.822 251.479L72.9628 214.324C73.6035 213.467 73.9134 212.407 73.8354 211.339C73.7575 210.272 73.297 209.268 72.5385 208.513C71.7801 207.758 70.7746 207.301 69.707 207.228C68.6394 207.155 67.5813 207.47 66.7272 208.114C65.8731 208.759 65.2804 209.691 65.0579 210.738C64.8355 211.785 64.9984 212.877 65.5165 213.814C66.0347 214.75 66.8734 215.468 67.8785 215.836C68.8835 216.204 69.9874 216.196 70.9873 215.815L99.7009 254.05L127.721 252.368L153.594 286.81C152.84 287.655 152.437 288.757 152.468 289.89C152.499 291.024 152.962 292.102 153.762 292.905C154.561 293.709 155.638 294.176 156.77 294.212C157.903 294.247 159.007 293.849 159.855 293.097L159.844 293.095ZM39.2891 454.853C37.5731 455.789 35.5675 456.044 33.6717 455.568C31.7759 455.091 30.129 453.918 29.0588 452.281C27.9887 450.645 27.5739 448.665 27.8971 446.737C28.2203 444.809 29.2577 443.073 30.8027 441.876C32.3478 440.678 34.2871 440.107 36.2345 440.276C38.182 440.444 39.9946 441.34 41.3115 442.786C42.6285 444.231 43.3531 446.119 43.341 448.074C43.3289 450.029 42.5811 451.908 41.2464 453.336L56.4536 473.555L52.9253 486.041L132.439 591.76L130.452 593.249L50.2033 486.55L53.7315 474.064L39.2891 454.853ZM39.8388 444.928C39.3214 444.242 38.6428 443.693 37.8629 443.331C37.0831 442.968 36.2261 442.804 35.3677 442.852C34.5093 442.9 33.676 443.159 32.9415 443.605C32.2069 444.052 31.5938 444.673 31.1564 445.413C30.719 446.154 30.4707 446.99 30.4335 447.85C30.3963 448.709 30.5713 449.564 30.9432 450.339C31.315 451.115 31.8721 451.787 32.5653 452.296C33.2584 452.805 34.0662 453.135 34.9172 453.257C36.2899 453.451 37.6833 453.092 38.7914 452.259C39.8996 451.426 40.6317 450.187 40.8273 448.814C40.9182 448.126 40.8709 447.427 40.688 446.757C40.505 446.088 40.1903 445.462 39.7621 444.916L39.8388 444.928ZM140.927 394.826C140.308 393.985 139.452 393.347 138.468 392.995C137.484 392.644 136.418 392.594 135.406 392.853C134.393 393.111 133.482 393.666 132.787 394.447C132.093 395.227 131.647 396.198 131.508 397.233C131.313 398.608 131.672 400.004 132.506 401.114C132.919 401.663 133.436 402.126 134.028 402.476C134.62 402.826 135.275 403.056 135.955 403.152C136.636 403.249 137.329 403.21 137.994 403.039C138.66 402.868 139.285 402.567 139.835 402.154C140.944 401.32 141.677 400.08 141.872 398.705C141.977 398.028 141.947 397.337 141.785 396.672C141.623 396.006 141.332 395.379 140.927 394.826ZM138.711 357.919L139.582 338.155L130.378 325.95L109.919 319.615L97.7092 303.396C95.9559 304.259 93.9417 304.431 92.0676 303.876C90.1934 303.321 88.5967 302.081 87.5954 300.402C86.5941 298.722 86.2616 296.728 86.6641 294.815C87.0666 292.902 88.1746 291.211 89.7675 290.078C91.3604 288.946 93.3213 288.455 95.2599 288.704C97.1986 288.952 98.9727 289.922 100.229 291.42C101.485 292.917 102.132 294.833 102.04 296.786C101.948 298.739 101.124 300.585 99.732 301.958L111.411 317.456L131.91 323.752L142.113 337.31L141.237 357.107L255.212 508.715L253.226 510.205L138.711 357.919ZM98.5075 293.333C98.0953 292.781 97.5783 292.316 96.9861 291.965C96.3939 291.613 95.7382 291.382 95.0566 291.285C94.375 291.187 93.6808 291.225 93.014 291.396C92.3471 291.568 91.7207 291.869 91.1706 292.283C90.0604 293.119 89.3275 294.362 89.133 295.738C88.9386 297.115 89.2985 298.512 90.1336 299.624C90.9692 300.734 92.2108 301.466 93.5859 301.661C94.6869 301.814 95.8076 301.608 96.7829 301.076L98.0633 300.165C98.9361 299.274 99.4611 298.1 99.5432 296.855C99.6253 295.61 99.2592 294.377 98.511 293.379L98.5075 293.333ZM179.685 547.682L145.525 502.271L149.065 489.787L134.251 470.108C134.897 469.255 135.213 468.197 135.142 467.129C135.071 466.061 134.617 465.054 133.863 464.294C133.11 463.534 132.107 463.072 131.04 462.992C129.973 462.912 128.913 463.22 128.055 463.859C127.196 464.498 126.598 465.426 126.369 466.472C126.14 467.517 126.296 468.61 126.808 469.55C127.32 470.49 128.154 471.214 129.157 471.588C130.16 471.962 131.264 471.961 132.266 471.586L146.342 490.296L142.803 502.78L177.699 549.171L179.685 547.682ZM117.516 516.497L155.403 566.854L166.679 568.458L181.648 588.355L178.692 598.853L239.925 680.204L241.9 678.712L181.421 598.3L184.377 587.802L167.995 566.134L156.717 564.541L118.841 514.186L106.55 512.456L82.723 480.772C83.3357 479.895 83.6115 478.826 83.4994 477.761C83.3874 476.697 82.8952 475.709 82.1131 474.978C81.3311 474.247 80.3118 473.824 79.2426 473.784C78.1733 473.745 77.126 474.093 76.2928 474.765C75.4597 475.436 74.8968 476.386 74.7076 477.439C74.5184 478.492 74.7155 479.579 75.2628 480.498C75.8101 481.418 76.6708 482.109 77.6867 482.445C78.7027 482.781 79.8056 482.739 80.793 482.327L105.18 514.76L117.516 516.497ZM-87.8037 291.864L-84.9025 281.357L-146.125 200.008L-148.111 201.498L-87.6229 281.922L-90.5241 292.429L-74.2044 314.133L-62.9261 315.725L-25.0502 366.08L-12.7496 367.823L11.0662 399.505C10.4789 400.397 10.2322 401.47 10.3709 402.529C10.5097 403.587 11.0247 404.56 11.8219 405.271C12.6191 405.981 13.6452 406.38 14.7124 406.395C15.7796 406.411 16.8167 406.042 17.634 405.355C18.4513 404.669 18.9941 403.711 19.1633 402.657C19.3325 401.603 19.1166 400.523 18.5553 399.615C17.9939 398.707 17.1246 398.031 16.1062 397.711C15.0878 397.391 13.9885 397.449 13.0092 397.873L-11.3784 365.441L-23.6681 363.7L-61.5439 313.345L-72.8313 311.74L-87.8037 291.864ZM-11.6574 447.135L-12.5339 466.932L-3.32973 479.138L17.1492 485.42L29.3466 501.648C30.7321 500.959 32.2955 500.713 33.8258 500.941C35.5668 501.179 37.1761 502 38.3911 503.27C39.6062 504.54 40.3554 506.184 40.5167 507.934C40.678 509.684 40.2419 511.438 39.2794 512.908C38.3169 514.378 36.8848 515.479 35.2166 516.031C33.5483 516.583 31.7423 516.553 30.0928 515.947C28.4434 515.34 27.0478 514.193 26.1337 512.692C25.2194 511.19 24.8405 509.424 25.0586 507.68C25.2767 505.936 26.079 504.317 27.3347 503.088L15.6451 487.588L-4.85386 481.291L-15.0485 467.746L-14.172 447.949L-128.157 296.396L-126.181 294.904L-11.6574 447.135ZM28.5574 511.723C29.176 512.564 30.0313 513.201 31.014 513.553C31.9966 513.905 33.0619 513.956 34.0733 513.698C35.0846 513.441 35.9962 512.888 36.6912 512.109C37.3862 511.33 37.833 510.362 37.9745 509.328C38.1674 507.951 37.8082 506.553 36.9751 505.44C36.5644 504.887 36.0473 504.422 35.4545 504.072C34.8616 503.723 34.2048 503.495 33.5227 503.402C32.4182 503.24 31.2912 503.446 30.3147 503.986L29.0344 504.897C28.1543 505.786 27.6243 506.963 27.5417 508.211C27.4591 509.46 27.8295 510.697 28.5848 511.694L28.5574 511.723ZM102.816 377.482C102.164 382.095 100.159 386.411 97.0554 389.884C93.9513 393.357 89.8871 395.831 85.3768 396.993C80.8666 398.155 76.1128 397.953 71.7168 396.412C67.3207 394.872 63.4798 392.062 60.6799 388.338C57.8799 384.615 56.2467 380.144 55.9866 375.492C55.7266 370.84 56.8515 366.216 59.219 362.205C61.5866 358.193 65.0905 354.974 69.2875 352.954C73.4846 350.935 78.1863 350.206 82.7981 350.86C88.9771 351.745 94.554 355.044 98.3063 360.034C102.059 365.024 103.68 371.299 102.816 377.482ZM82.4567 353.281C78.3216 352.688 74.1038 353.336 70.3374 355.142C66.571 356.949 63.4255 359.833 61.2992 363.429C59.1729 367.025 58.1615 371.172 58.393 375.344C58.6245 379.516 60.0885 383.526 62.5997 386.865C65.1109 390.205 68.5562 392.725 72.4994 394.104C76.4425 395.485 80.7062 395.663 84.7504 394.618C88.7946 393.572 92.4375 391.349 95.2176 388.231C97.9977 385.113 99.7901 381.24 100.368 377.102C101.14 371.569 99.6885 365.956 96.3313 361.491C92.9742 357.026 87.985 354.074 82.4567 353.281ZM77.1177 391.028C73.7793 390.556 70.6559 389.104 68.1426 386.856C65.6293 384.607 63.8392 381.664 62.9988 378.397C62.1584 375.131 62.3055 371.689 63.4214 368.507C64.5374 365.325 66.5721 362.546 69.268 360.521C71.9639 358.497 75.1997 357.318 78.5662 357.133C81.9326 356.949 85.2782 357.768 88.1795 359.486C91.0809 361.205 93.4076 363.745 94.8652 366.787C96.3228 369.828 96.8457 373.233 96.3678 376.571C95.7277 381.044 93.3419 385.079 89.7328 387.795C86.1238 390.511 81.5857 391.685 77.1122 391.061L77.1177 391.028ZM81.5367 359.729C78.6848 359.325 75.7775 359.777 73.1825 361.026C70.5875 362.276 68.4213 364.267 66.9579 366.748C65.4945 369.229 64.7995 372.089 64.9609 374.965C65.1223 377.842 66.1328 380.606 67.8647 382.908C69.5965 385.21 71.9719 386.948 74.6905 387.9C77.409 388.852 80.3486 388.976 83.1375 388.257C85.9264 387.538 88.4394 386.008 90.3587 383.86C92.2779 381.713 93.5172 379.044 93.9198 376.191C94.4442 372.371 93.4354 368.499 91.114 365.42C88.7925 362.341 85.3472 360.307 81.5312 359.762L81.5367 359.729ZM87.4391 375.275C87.6612 373.705 87.4128 372.105 86.7253 370.677C86.0379 369.249 84.9423 368.056 83.5773 367.251C82.2123 366.445 80.6391 366.063 79.057 366.152C77.4749 366.242 75.9548 366.798 74.6893 367.752C73.4238 368.706 72.4696 370.014 71.9476 371.51C71.4256 373.007 71.3592 374.625 71.7568 376.159C72.1544 377.694 72.9981 379.076 74.1812 380.13C75.3643 381.185 76.8335 381.865 78.403 382.085C80.4981 382.377 82.6237 381.829 84.3156 380.559C86.0075 379.289 87.1284 377.401 87.4336 375.308L87.4391 375.275ZM104.255 410.517L95.3534 409.258L94.0993 418.151L103.001 419.409L104.255 410.517ZM102.155 425.351L93.2644 424.095L91.9974 432.997L100.899 434.255L102.155 425.351ZM100.066 440.187L91.1644 438.929L89.9085 447.833L98.7989 449.089L100.066 440.187ZM97.9585 455.066L89.068 453.81L87.803 462.7L96.7044 463.959L97.9585 455.066ZM78.1365 415.946L87.036 417.215L88.292 408.312L79.3906 407.054L78.1365 415.946ZM86.1921 423.146L77.3016 421.89L76.0475 430.783L84.938 432.039L86.1921 423.146Z" fill="white"/>
</svg>
