<svg width="50" height="46" viewBox="0 0 50 46" fill="none" xmlns="http://www.w3.org/2000/svg">
<rect x="1" y="11" width="48" height="25" fill="#F7CF47"/>
<path d="M2.67969 11.6972V11.4472H2.92969H47.0703H47.3203V11.6972V34.1444C47.3203 35.1272 46.5232 35.9277 45.5414 35.9277H4.45859C3.47677 35.9277 2.67969 35.1272 2.67969 34.1444V11.6972ZM32.5112 42.887L32.6259 43.2188H32.2749H17.7251H17.3741L17.4888 42.887L18.9973 38.5257L19.0555 38.3574H19.2336H30.7664H30.9445L31.0027 38.5257L32.5112 42.887ZM47.3203 8.76748V9.01748H47.0703H2.92969H2.67969V8.76748V4.46289C2.67969 3.48008 3.47679 2.67969 4.45859 2.67969H45.5414C46.5232 2.67969 47.3203 3.48008 47.3203 4.46289V8.76748ZM16.1336 38.3574H16.4846L16.3699 38.6891L14.8614 43.0505L14.8032 43.2188H14.6251H13.1465C12.4756 43.2188 11.9316 43.7627 11.9316 44.4336C11.9316 45.1045 12.4756 45.6484 13.1465 45.6484H36.8534C37.5243 45.6484 38.0683 45.1045 38.0683 44.4336C38.0683 43.7627 37.5243 43.2188 36.8534 43.2188H35.3749H35.1968L35.1386 43.0505L33.63 38.6891L33.5153 38.3574H33.8663H45.5414C47.8616 38.3574 49.75 36.4674 49.75 34.1444V4.46289C49.75 2.1399 47.8616 0.25 45.5414 0.25H4.45859C2.1384 0.25 0.25 2.1399 0.25 4.46289V34.1444C0.25 36.4674 2.1384 38.3574 4.45859 38.3574H16.1336Z" fill="#04144E" stroke="#04144E" stroke-width="0.5"/>
<path d="M6.15991 7.07812H8.34644C9.01735 7.07812 9.56128 6.53419 9.56128 5.86328C9.56128 5.19237 9.01735 4.64844 8.34644 4.64844H6.15991C5.489 4.64844 4.94507 5.19237 4.94507 5.86328C4.94507 6.53419 5.489 7.07812 6.15991 7.07812Z" fill="#04144E" stroke="#04144E" stroke-width="0.5"/>
<path d="M12.668 7.07812H14.8545C15.5254 7.07812 16.0693 6.53419 16.0693 5.86328C16.0693 5.19237 15.5254 4.64844 14.8545 4.64844H12.668C11.9971 4.64844 11.4531 5.19237 11.4531 5.86328C11.4531 6.53419 11.9971 7.07812 12.668 7.07812Z" fill="#04144E" stroke="#04144E" stroke-width="0.5"/>
<path d="M19.2268 7.07812H21.4133C22.0842 7.07812 22.6282 6.53419 22.6282 5.86328C22.6282 5.19237 22.0842 4.64844 21.4133 4.64844H19.2268C18.5559 4.64844 18.012 5.19237 18.012 5.86328C18.012 6.53419 18.5559 7.07812 19.2268 7.07812Z" fill="#04144E" stroke="#04144E" stroke-width="0.5"/>
<path d="M11.8577 22.8565L11.8577 22.8564L16.8546 17.4986C16.8546 17.4986 16.8546 17.4985 16.8547 17.4985C17.3123 17.0081 18.081 16.9812 18.5716 17.4387C19.0624 17.8963 19.0891 18.6651 18.6315 19.1556L18.6315 19.1557L14.5663 23.5145L14.4073 23.6851L14.5663 23.8556L18.6315 28.2145L18.6315 28.2145C19.0891 28.705 19.0624 29.4738 18.5716 29.9314L18.5716 29.9314C18.3375 30.1497 18.0404 30.2577 17.7434 30.2578L11.8577 22.8565ZM11.8577 22.8565C11.4224 23.3231 11.4225 24.047 11.8577 24.5136L11.8577 24.5136M11.8577 22.8565L11.8577 24.5136M11.8577 24.5136L16.8547 29.8716L16.8547 29.8716M11.8577 24.5136L16.8547 29.8716M16.8547 29.8716C17.0939 30.1281 17.4177 30.2578 17.7433 30.2578L16.8547 29.8716Z" fill="#04144E" stroke="#04144E" stroke-width="0.5"/>
<path d="M27.0784 17.1762L27.0783 17.1762C26.4409 16.9675 25.7547 17.315 25.5458 17.9527C25.5458 17.9527 25.5458 17.9527 25.5458 17.9527L22.0373 28.6684L22.0373 28.6684C21.8285 29.3061 22.1762 29.9923 22.8138 30.201L22.8139 30.201C22.9398 30.2423 23.0671 30.2617 23.1921 30.2617C23.7034 30.2617 24.1788 29.9363 24.3464 29.4244L27.8549 18.7087L28.0925 18.7865L27.8549 18.7087C28.0637 18.0711 27.716 17.3849 27.0784 17.1762Z" fill="#04144E" stroke="#04144E" stroke-width="0.5"/>
<path d="M31.4488 17.4387L31.4489 17.4387C31.9393 16.9811 32.7081 17.0079 33.1658 17.4986L38.1628 22.8564C38.1628 22.8564 38.1628 22.8564 38.1628 22.8564C38.5979 23.3231 38.5979 24.0469 38.1628 24.5136L31.4488 17.4387ZM31.4488 17.4387C30.9581 17.8963 30.9313 18.665 31.389 19.1556L31.389 19.1557L35.4541 23.5145L35.6131 23.6851L35.4541 23.8556L31.389 28.2144L31.389 28.2144C30.9313 28.705 30.9581 29.4737 31.4488 29.9314L31.4488 29.9315C31.683 30.1498 31.98 30.2578 32.277 30.2578C32.6027 30.2578 32.9265 30.128 33.1658 29.8715C33.1658 29.8715 33.1658 29.8715 33.1658 29.8715L38.1628 24.5136L31.4488 17.4387Z" fill="#04144E" stroke="#04144E" stroke-width="0.5"/>
</svg>
